<?xml version="1.0" standalone="no"?>
<!DOCTYPE svg PUBLIC "-//W3C//DTD SVG 20010904//EN"
 "http://www.w3.org/TR/2001/REC-SVG-20010904/DTD/svg10.dtd">
<svg version="1.0" xmlns="http://www.w3.org/2000/svg"
 width="700.000000pt" height="700.000000pt" viewBox="0 0 700.000000 700.000000"
 preserveAspectRatio="xMidYMid meet">
<metadata>
Created by potrace 1.11, written by Peter Selinger 2001-2013
</metadata>
<g transform="translate(0.000000,700.000000) scale(0.100000,-0.100000)"
fill="#000000" stroke="none">
<path d="M2493 6113 c4 -202 9 -381 11 -398 3 -16 7 -86 11 -155 3 -69 7 -141
10 -160 2 -19 6 -69 10 -110 9 -118 22 -230 31 -284 l5 -28 -63 8 c-118 15
-445 9 -543 -10 -11 -2 -42 -7 -70 -10 -244 -33 -614 -143 -935 -278 -222 -94
-455 -208 -444 -218 19 -17 643 -426 999 -655 127 -81 253 -162 280 -180 51
-33 120 -76 330 -207 66 -41 224 -137 350 -213 127 -76 232 -139 233 -141 7
-5 -250 -365 -325 -455 -11 -13 -69 -85 -129 -159 -105 -131 -147 -182 -317
-380 -110 -127 -307 -347 -460 -514 -83 -89 -296 -315 -398 -421 -257 -265
-324 -334 -421 -431 l-100 -102 22 -30 c27 -36 -7 -53 265 132 202 138 545
381 710 505 231 173 591 457 679 536 6 6 40 35 76 65 36 30 70 60 76 65 6 6
36 31 66 57 63 55 75 66 223 202 117 108 324 313 443 440 40 43 75 77 76 75 2
-2 43 -82 92 -178 48 -96 108 -211 132 -255 296 -533 559 -964 942 -1541 l152
-230 -6 395 c-3 217 -8 424 -10 460 -3 36 -7 117 -11 180 -3 63 -8 131 -10
150 -2 19 -7 71 -10 115 -3 44 -8 103 -11 130 -2 28 -6 68 -9 90 -4 46 -33
281 -41 334 -3 20 -9 63 -15 96 -5 33 -9 66 -9 73 0 9 223 12 1082 12 l1083 0
-240 158 c-741 487 -1303 822 -1797 1072 -103 52 -187 98 -185 101 1 3 45 41
97 85 231 191 513 480 791 809 179 213 538 672 621 795 9 14 63 89 120 167
138 191 438 624 491 710 4 6 -6 22 -21 36 l-28 27 -217 -148 c-491 -333 -546
-372 -921 -643 -357 -259 -676 -502 -901 -687 -49 -40 -99 -81 -110 -90 -12
-9 -46 -39 -78 -65 -38 -32 -58 -44 -61 -35 -7 20 -15 61 -22 104 -24 158
-163 446 -303 629 -256 336 -683 660 -1230 935 l-64 32 6 -369z m407 53 c313
-190 527 -366 765 -630 23 -25 123 -164 152 -211 87 -140 159 -314 192 -468
34 -155 36 -148 -82 -250 -56 -49 -140 -124 -186 -167 l-84 -78 -95 99 c-178
187 -369 320 -577 403 -38 15 -77 32 -86 36 -9 5 -69 21 -132 37 l-116 28 -6
50 c-4 28 -9 57 -10 65 -1 8 -6 49 -10 90 -4 41 -9 82 -10 90 -2 8 -6 60 -10
115 -4 55 -8 116 -10 135 -4 40 -16 277 -20 401 -3 87 -6 321 -5 397 l0 43 98
-52 c53 -28 158 -88 232 -133z m3274 -38 c-204 -297 -636 -890 -746 -1023 -9
-11 -51 -63 -93 -115 -255 -316 -423 -507 -641 -724 -172 -172 -337 -320 -425
-382 l-44 -30 -107 46 c-59 26 -106 49 -103 51 4 5 52 167 60 203 2 11 6 32 9
46 27 119 36 218 36 361 l0 117 34 26 c19 14 40 31 48 38 11 12 91 79 153 130
146 121 485 384 680 528 99 73 203 150 230 170 111 83 422 301 678 477 150
103 283 195 297 205 14 9 26 18 28 18 2 0 -41 -64 -94 -142z m-3649 -1222 c11
-2 28 -5 37 -5 11 -1 19 -12 23 -33 9 -56 55 -302 61 -330 l6 -28 -108 0 -109
0 151 -152 c145 -146 153 -156 179 -228 15 -41 51 -122 79 -180 46 -91 51
-110 44 -140 -17 -76 -9 -240 17 -352 l13 -56 -67 -110 c-36 -61 -73 -120 -81
-132 -16 -22 -17 -22 -260 125 -231 139 -725 448 -907 566 -45 30 -124 81
-175 114 -99 63 -530 346 -673 441 -78 52 -101 74 -76 74 6 0 54 21 108 46
143 67 146 68 288 124 352 140 717 235 980 257 39 3 72 7 73 8 6 5 374 -3 397
-9z m305 -68 c230 -74 433 -195 612 -366 44 -42 97 -97 118 -122 l38 -45 -94
-98 c-53 -55 -99 -95 -105 -91 -6 3 -51 6 -100 6 -89 -1 -89 -1 -95 26 -23
102 -80 186 -169 247 -54 37 -156 77 -225 90 -84 15 -75 2 -105 158 -15 78
-30 158 -32 177 -2 19 -6 41 -9 49 -6 18 40 9 166 -31z m1213 -307 c-3 -156
-32 -333 -77 -476 -29 -92 -43 -94 -92 -13 -20 35 -66 105 -101 157 -35 51
-63 96 -63 99 0 6 15 21 180 172 116 107 143 129 149 125 3 -2 5 -30 4 -64z
m-1364 -133 l11 -32 -30 29 c-35 34 -36 35 -11 35 12 0 23 -11 30 -32z m172
-4 c151 -45 256 -143 274 -256 6 -34 4 -35 -56 -66 l-63 -32 -102 107 c-95
100 -104 113 -120 173 -9 36 -19 71 -22 78 -6 16 23 15 89 -4z m878 -269 c33
-49 59 -90 58 -91 -2 -3 -224 55 -251 65 -16 6 -10 16 45 74 51 55 65 65 75
55 7 -7 40 -53 73 -103z m-779 -153 c0 -28 -21 -19 -40 17 -29 57 -25 67 10
28 17 -19 30 -39 30 -45z m399 69 c1 -1 -24 -31 -56 -68 -32 -38 -70 -81 -83
-98 -13 -16 -20 -22 -17 -13 6 16 18 110 21 153 1 16 10 21 41 25 34 4 80 5
94 1z m239 -37 c31 -8 103 -29 159 -46 98 -30 102 -32 124 -72 l22 -42 -60
-126 -61 -126 -48 -15 c-76 -24 -94 -27 -174 -33 l-75 -6 -66 73 c-37 41 -87
97 -113 124 -25 28 -46 53 -46 56 0 5 14 23 124 157 l70 84 44 -7 c24 -3 69
-13 100 -21z m-455 -31 c-8 -50 -9 -50 -38 -23 -31 29 -31 34 -2 48 39 19 46
15 40 -25z m-34 -156 c0 -7 -6 -28 -13 -47 l-13 -35 -46 64 c-46 62 -47 63
-31 94 l17 31 43 -48 c24 -26 44 -53 43 -59z m969 21 c42 -17 79 -33 81 -34 6
-5 -43 -43 -55 -44 -6 0 -17 -7 -24 -15 -22 -27 -40 -16 -65 41 -24 55 -31 84
-19 84 3 0 40 -14 82 -32z m360 -166 c162 -81 379 -196 492 -260 270 -153 724
-428 985 -597 250 -161 365 -238 365 -244 0 -4 -1701 -6 -1887 -2 -17 1 -23 9
-28 44 -4 23 -9 51 -11 62 -21 99 -26 123 -30 145 -40 205 -162 622 -223 763
-12 27 -21 52 -21 57 0 9 159 119 173 120 4 0 88 -40 185 -88z m-1388 -15 c0
-4 -14 -38 -31 -75 l-32 -67 -8 45 c-8 40 -14 142 -10 179 1 13 80 -66 81 -82z
m910 16 c-10 -7 -29 -17 -42 -22 l-24 -9 25 54 25 54 17 -32 c16 -31 16 -33
-1 -45z m-679 -25 c38 -40 68 -76 69 -80 0 -12 -110 39 -147 68 -18 14 -33 27
-33 30 0 8 32 54 38 54 2 0 36 -33 73 -72z m814 -283 c29 -88 71 -230 93 -315
37 -141 102 -443 102 -470 0 -8 -24 -11 -77 -8 l-78 3 -8 55 c-14 97 -85 226
-235 425 -41 55 -96 125 -121 155 -26 30 -52 63 -59 72 -12 14 -4 33 55 130
l68 114 85 40 85 41 18 -41 c10 -23 43 -113 72 -201z m-840 151 c28 -13 73
-28 100 -34 28 -6 61 -14 75 -17 15 -4 55 -40 97 -89 l72 -83 -52 -74 c-51
-73 -137 -189 -147 -199 -3 -3 -32 -38 -64 -78 -32 -40 -62 -75 -67 -78 -14
-8 -89 39 -95 61 -3 11 -12 34 -20 50 -19 42 -80 205 -92 246 -6 19 -19 62
-30 95 l-20 62 27 58 c14 33 39 82 55 110 l30 51 40 -29 c23 -16 64 -40 91
-52z m454 -47 c-6 -12 -24 -41 -39 -66 l-28 -44 -40 48 c-23 26 -40 49 -38 50
2 3 119 27 149 32 4 0 3 -9 -4 -20z m-659 -449 c10 -25 17 -47 14 -49 -2 -2
-22 8 -43 22 -36 24 -41 33 -48 79 -7 50 -7 77 -4 138 1 16 13 -5 32 -60 17
-47 39 -105 49 -130z m824 -74 c94 -129 151 -228 169 -292 18 -62 11 -76 -34
-70 -19 3 -68 8 -108 11 -90 8 -177 39 -399 146 l-164 79 47 57 c84 105 170
217 219 285 l48 68 74 -91 c41 -51 108 -137 148 -193z m-985 183 c1 -29 4 -56
7 -61 4 -6 -2 -5 -12 1 -48 27 -48 26 -23 70 12 22 23 41 24 41 1 0 3 -23 4
-51z m-61 -117 c15 -10 44 -26 64 -37 20 -10 41 -28 46 -39 18 -40 93 -126
145 -167 28 -23 53 -45 55 -49 7 -17 -357 -384 -584 -590 -118 -107 -140 -126
-214 -189 -41 -35 -77 -67 -80 -70 -24 -30 -462 -378 -695 -553 -197 -148
-645 -469 -645 -463 0 2 41 46 91 97 77 79 192 199 418 437 24 25 87 93 139
151 52 58 102 112 111 121 9 8 45 49 81 89 36 40 70 78 76 84 6 6 59 67 118
136 60 69 120 139 135 155 158 174 457 558 686 883 19 27 20 27 53 4z m541
-294 c29 -15 48 -28 43 -28 -19 0 -132 52 -132 61 0 10 20 3 89 -33z m53 -112
c103 -31 304 -73 354 -75 13 -1 24 -9 27 -21 5 -19 14 -20 256 -20 232 0 251
-1 252 -17 0 -10 2 -27 4 -38 2 -11 6 -38 10 -61 3 -22 7 -52 9 -65 5 -27 14
-98 21 -149 10 -77 14 -118 20 -185 4 -38 8 -80 10 -91 2 -12 6 -61 10 -110 4
-49 9 -105 10 -124 4 -37 14 -192 20 -300 2 -36 7 -193 11 -350 l6 -285 -75
115 c-176 267 -519 814 -587 935 -9 17 -60 105 -113 197 -133 229 -357 653
-357 674 0 3 7 4 15 0 8 -3 52 -16 97 -30z"/>
</g>
</svg>
